PathFileType	4	(X/Y/Z)	Walk5.trc
DataRate	CameraRate	NumFrames	NumMarkers	Units	OrigDataRate	OrigDataStartFrame	OrigNumFrames
200.000000	200.000000	6	59	mm	200.000000	501	531
Frame#	Times		RFHD		CLAV		RASI		RACR1		RUA1		RFA1		LUA1		LFA1		LWRR		LWRU		RTH1		LTH2		LCAR		LACR1		LFHD		RBack		RCAR		LTH4		LTH3		T10		LLFC		C7		RWRR		LASI		RWRU		RElbow		LTB2		LToe		LBHD		RBHD		LTH1		STRN		RTB1		LTB4		RTH4		RPSI		RTH2		RMT1		LMMAL		LTB1		LMT1		LCAL		LElbow		LTB3		LMT5		RTB2		RElbowM		RTH3		RLFC		LElbowM		RTB4		LLMAL		LPSI		RTB3		RCAL		RToe		RMMAL		RLMAL		RMT5
			X1	Y1	Z1	X2	Y2	Z2	X3	Y3	Z3	X4	Y4	Z4	X5	Y5	Z5	X6	Y6	Z6	X7	Y7	Z7	X8	Y8	Z8	X9	Y9	Z9	X10	Y10	Z10	X11	Y11	Z11	X12	Y12	Z12	X13	Y13	Z13	X14	Y14	Z14	X15	Y15	Z15	X16	Y16	Z16	X17	Y17	Z17	X18	Y18	Z18	X19	Y19	Z19	X20	Y20	Z20	X21	Y21	Z21	X22	Y22	Z22	X23	Y23	Z23	X24	Y24	Z24	X25	Y25	Z25	X26	Y26	Z26	X27	Y27	Z27	X28	Y28	Z28	X29	Y29	Z29	X30	Y30	Z30	X31	Y31	Z31	X32	Y32	Z32	X33	Y33	Z33	X34	Y34	Z34	X35	Y35	Z35	X36	Y36	Z36	X37	Y37	Z37	X38	Y38	Z38	X39	Y39	Z39	X40	Y40	Z40	X41	Y41	Z41	X42	Y42	Z42	X43	Y43	Z43	X44	Y44	Z44	X45	Y45	Z45	X46	Y46	Z46	X47	Y47	Z47	X48	Y48	Z48	X49	Y49	Z49	X50	Y50	Z50	X51	Y51	Z51	X52	Y52	Z52	X53	Y53	Z53	X54	Y54	Z54	X55	Y55	Z55	X56	Y56	Z56	X57	Y57	Z57	X58	Y58	Z58	X59	Y59	Z59

501	2.505	731.84	1441.3	28.68	727.18	1194.5	-18.199	721.66	840.07	153.92	650.9	1228.6	158.84	653.57	1090	245.87	716.1	847.34	291.8	695.02	1047.4	-269.07	744.62	842.96	-301.33	798.25	746.38	-268.53	758.8	731.15	-315.46	682.48	649.65	207.57	704.33	582.54	-170.62	808.37	693.37	-309.24	659.46	1214.9	-209.92	743.41	1446.4	-67.548	536.12	1158.6	94.974	746.97	693.62	318.36	651.02	571.4	-193.27	651.88	488.71	-165.16	500.93	1076.3	-10.678	672.92	396.35	-126.25	585.04	1277	-26.056	746.01	750.15	263.35	704.93	826.72	-168.02	696.48	745.02	315.57	651.48	960.34	277.83	646.66	211.44	-113.62	768.32	29.945	-45.251	623.08	1357.7	-96.638	607.97	1359.1	35.995	650.53	656.01	-215.16	778.9	1088.8	-8.8166	737.28	296.4	102.32	664.22	210.73	-53.916	708.57	568.26	190.9	461.38	850.22	54.079	761.74	592.72	172.79	659.31	48.482	47.68	615	73.281	-2.8825	684.88	296.01	-59.662	715.82	33.758	-20.784	548.59	44.597	-38.75	668.49	926.43	-285.7	651.57	128.48	-49.694	673.03	21.288	-106.22	649.92	244.45	134.48	604.18	925.96	206.63	739.64	489.75	169.43	728.19	407.18	150.42	631.71	903.23	-223.76	685.46	227.59	88.125	592.67	59.005	-81.678	453.9	855.81	-51.31	641.27	157.07	74.78	509.37	121.82	43.601	698.52	39.249	92.603	591.4	125.09	20.953	563.01	123.02	99.297	619.5	49.633	126.37
502	2.51	737.19	1441.3	28.833	732.66	1194.5	-18.047	726.31	840.3	154.5	656.46	1228.5	158.91	658.82	1090	245.89	720.88	847.29	291.98	700.25	1047.6	-269.18	751.95	843.82	-300.7	806.59	748.13	-267.31	767.62	732.21	-314.38	688.08	649.86	207.6	708.46	581.99	-170.37	817.75	695.39	-308.01	664.97	1215.1	-209.82	748.72	1446.5	-67.395	541.64	1158.6	94.984	751.45	693.63	318.84	655.16	571.07	-193.02	655.42	488.47	-165	506.41	1076.4	-10.816	675.68	395.87	-126.11	590.51	1277	-25.924	750.55	750.04	263.71	710.11	826.5	-168.17	701.01	745.04	315.9	656.48	960.4	277.94	648.05	211.1	-113.49	768.55	29.833	-45.226	628.47	1357.7	-96.506	613.39	1359.1	36.139	655.28	655.78	-215	784.33	1088.7	-7.989	748.17	297.16	101.81	665.52	210.25	-53.775	715.1	568.82	190.54	466.41	850.54	53.668	768.17	594.01	172.87	678.65	47.696	47.679	615.21	73.202	-2.69	686.8	295.39	-59.473	715.9	33.749	-20.78	548.71	44.786	-38.652	674.69	926.52	-285.77	652.21	128.1	-49.568	673.01	21.297	-106.16	662.62	242.51	134.26	609.06	926.08	206.75	747.19	490.81	168.64	736.42	407.86	149.76	637.88	903.17	-223.83	698.55	226.83	87.782	592.87	59.074	-81.567	459.22	856.02	-51.577	656.66	154.94	74.617	525.87	115.09	43.91	718.37	40.003	92.409	607.77	121.36	21.067	579.68	118.33	99.463	639.05	47.208	126.46
503	2.515	742.54	1441.4	29.029	738.15	1194.4	-17.893	730.97	840.48	155.07	662.02	1228.4	158.98	664.09	1090	245.92	725.69	847.23	292.17	705.44	1047.8	-269.3	759.25	844.67	-300.09	814.9	749.87	-266.13	776.39	733.27	-313.3	693.65	649.99	207.65	712.6	581.43	-170.09	827.05	697.42	-306.82	670.49	1215.2	-209.72	754.02	1446.6	-67.198	547.17	1158.6	94.992	755.99	693.62	319.35	659.33	570.73	-192.77	659	488.22	-164.85	511.89	1076.4	-10.943	678.46	395.36	-125.98	595.97	1277	-25.793	755.17	749.92	264.09	715.33	826.23	-168.28	705.59	745.05	316.23	661.49	960.45	278.07	649.46	210.73	-113.38	768.77	29.724	-45.202	633.87	1357.7	-96.346	618.8	1359	36.311	660.04	655.52	-214.83	789.76	1088.6	-7.1746	758.91	297.91	101.31	666.84	209.78	-53.642	721.54	569.29	190.16	471.48	850.79	53.299	774.49	595.17	172.96	698.08	47.039	47.647	615.41	73.132	-2.4881	688.75	294.75	-59.291	715.97	33.744	-20.781	548.83	44.988	-38.546	680.87	926.57	-285.82	652.85	127.71	-49.444	673	21.306	-106.1	675.3	240.53	134.05	613.98	926.16	206.86	754.54	491.75	167.8	744.38	408.45	149.07	644.08	903.07	-223.86	711.63	226.07	87.449	593.07	59.149	-81.463	464.54	856.18	-51.8	672.16	152.86	74.466	542.72	108.34	44.24	738.26	40.93	92.167	624.35	117.64	21.185	596.6	113.63	99.636	658.77	44.894	126.52
504	2.52	747.87	1441.3	29.268	743.65	1194.4	-17.739	735.65	840.6	155.63	667.59	1228.3	159.06	669.4	1089.9	245.95	730.53	847.15	292.4	710.59	1047.9	-269.42	766.51	845.49	-299.49	823.18	751.62	-264.99	785.09	734.33	-312.24	699.18	650.03	207.73	716.76	580.85	-169.78	836.27	699.44	-305.68	676.02	1215.3	-209.61	759.32	1446.6	-66.956	552.68	1158.5	94.996	760.59	693.58	319.86	663.51	570.37	-192.54	662.61	487.94	-164.71	517.38	1076.4	-11.056	681.29	394.84	-125.86	601.45	1277	-25.662	759.85	749.79	264.51	720.57	825.89	-168.33	710.22	745.03	316.58	666.52	960.46	278.2	650.88	210.36	-113.27	768.99	29.62	-45.178	639.25	1357.7	-96.158	624.21	1358.8	36.511	664.82	655.25	-214.63	795.17	1088.4	-6.3872	769.49	298.65	100.83	668.18	209.29	-53.513	727.87	569.67	189.77	476.59	850.94	52.977	780.71	596.18	173.04	717.59	46.544	47.599	615.59	73.075	-2.2754	690.72	294.09	-59.118	716.05	33.741	-20.787	548.96	45.204	-38.433	687	926.57	-285.85	653.5	127.32	-49.32	672.99	21.315	-106.04	687.97	238.53	133.83	618.95	926.22	206.97	761.69	492.59	166.92	752.06	408.93	148.36	650.29	902.91	-223.85	724.68	225.34	87.13	593.28	59.229	-81.366	469.86	856.29	-51.975	687.76	150.84	74.333	559.89	101.61	44.591	758.16	42.057	91.901	641.13	113.98	21.312	613.77	108.97	99.819	678.64	42.738	126.58
505	2.525	753.2	1441.2	29.55	749.14	1194.2	-17.584	740.36	840.67	156.17	673.14	1228.1	159.14	674.72	1089.8	245.98	735.41	847.05	292.65	715.72	1047.9	-269.55	773.72	846.28	-298.91	831.42	753.35	-263.9	793.74	735.38	-311.19	704.67	649.98	207.84	720.94	580.24	-169.45	845.4	701.46	-304.58	681.57	1215.4	-209.49	764.61	1446.6	-66.67	558.2	1158.4	94.998	765.26	693.53	320.39	667.71	570	-192.33	666.25	487.64	-164.57	522.87	1076.3	-11.156	684.16	394.3	-125.75	606.93	1276.9	-25.53	764.6	749.65	264.94	725.84	825.5	-168.33	714.9	744.99	316.93	671.57	960.44	278.35	652.34	209.98	-113.17	769.19	29.52	-45.157	644.64	1357.7	-95.94	629.61	1358.6	36.74	669.59	654.95	-214.42	800.57	1088.2	-5.6408	779.89	299.38	100.36	669.54	208.79	-53.389	734.09	569.93	189.37	481.74	851.02	52.712	786.81	597.02	173.13	737.16	46.241	47.554	615.78	73.032	-2.0513	692.73	293.42	-58.954	716.13	33.737	-20.792	549.09	45.437	-38.315	693.11	926.53	-285.85	654.17	126.93	-49.197	672.98	21.325	-105.99	700.61	236.53	133.62	623.96	926.23	207.08	768.62	493.3	166.01	759.44	409.29	147.63	656.51	902.71	-223.78	737.68	224.64	86.826	593.51	59.318	-81.278	475.17	856.35	-52.095	703.44	148.91	74.222	577.4	94.934	44.964	778.04	43.412	91.635	658.09	110.4	21.454	631.15	104.39	100.02	698.63	40.783	126.65
506	2.53	758.52	1441.1	29.875	754.64	1194.1	-17.428	745.1	840.68	156.69	678.7	1227.9	159.23	680.06	1089.6	246.02	740.31	846.93	292.93	720.83	1047.9	-269.66	780.89	847.05	-298.35	839.62	755.07	-262.86	802.33	736.41	-310.16	710.14	649.84	207.99	725.13	579.62	-169.1	854.46	703.45	-303.53	687.13	1215.5	-209.37	769.89	1446.6	-66.34	563.71	1158.3	94.999	769.98	693.44	320.93	671.93	569.61	-192.13	669.92	487.31	-164.45	528.37	1076.2	-11.242	687.08	393.73	-125.65	612.42	1276.7	-25.392	769.41	749.49	265.41	731.12	825.05	-168.26	719.64	744.91	317.29	676.64	960.39	278.51	653.82	209.58	-113.08	769.39	29.424	-45.14	650.02	1357.6	-95.692	635.01	1358.4	36.997	674.36	654.63	-214.2	805.97	1087.9	-4.9488	790.1	300.12	99.901	670.92	208.29	-53.268	740.2	570.1	188.97	486.94	851.02	52.509	792.8	597.7	173.21	756.77	46.16	47.525	615.96	73.007	-1.816	694.78	292.73	-58.798	716.21	33.73	-20.792	549.23	45.691	-38.192	699.19	926.44	-285.84	654.84	126.54	-49.074	672.98	21.335	-105.94	713.22	234.55	133.42	629.01	926.2	207.21	775.31	493.88	165.07	766.53	409.54	146.89	662.76	902.46	-223.68	750.63	224	86.54	593.74	59.415	-81.196	480.49	856.37	-52.155	719.18	147.11	74.136	595.21	88.356	45.358	797.89	45.02	91.387	675.22	106.93	21.614	648.75	99.927	100.23	718.73	39.072	126.74
